<?xml version="1.0" encoding="UTF-8" standalone="no"?>
<!-- Created with Inkscape (http://www.inkscape.org/) -->

<svg
   version="1.1"
   id="svg1"
   width="97"
   height="116.5"
   viewBox="0 0 96.999993 116.5"
   xmlns="http://www.w3.org/2000/svg"
   xmlns:svg="http://www.w3.org/2000/svg">
  <defs
     id="defs1">
    <linearGradient
       id="swatch12">
      <stop
         style="stop-color:#000000;stop-opacity:1;"
         offset="0"
         id="stop12" />
    </linearGradient>
    <clipPath
       clipPathUnits="userSpaceOnUse"
       id="clipPath5">
      <g
         id="use5" />
    </clipPath>
    <clipPath
       clipPathUnits="userSpaceOnUse"
       id="clipPath12">
      <rect
         style="display:inline;fill:none;fill-opacity:1"
         id="rect12"
         width="96.731239"
         height="116.12366"
         x="105.50399"
         y="80.109154" />
    </clipPath>
    <clipPath
       clipPathUnits="userSpaceOnUse"
       id="clipPath18">
      <rect
         style="fill:none;fill-opacity:1"
         id="rect18"
         width="97.345169"
         height="116.69328"
         x="103.59299"
         y="115.48402" />
    </clipPath>
  </defs>
  <g
     id="g1">
    <path
       style="fill:#000000"
       d="m 122.85402,231.32589 c -4.89588,-0.82295 -8.72891,-2.79467 -12.21271,-6.28225 -3.87732,-3.88153 -5.91426,-8.16687 -6.52163,-13.72028 -0.15527,-1.41973 -0.12074,-2.82375 0.22737,-9.24633 0.22574,-4.16483 0.65926,-12.34304 0.96337,-18.17381 0.30411,-5.83076 0.59718,-11.06769 0.65126,-11.63761 1.10162,-11.60905 8.70853,-21.47625 19.58129,-25.39962 4.07646,-1.47096 5.92014,-1.71756 13.57774,-1.81609 l 6.25132,-0.0804 v -6.75762 c 0,-5.7865 -0.0331,-6.75762 -0.23017,-6.75762 -0.12659,0 -1.21958,0.14424 -2.42886,0.32054 -6.24248,0.91005 -12.79347,2.6107 -18.99625,4.93145 -2.62176,0.98093 -4.59801,0.93314 -6.83014,-0.16515 -2.4211,-1.19128 -4.83476,-3.96674 -6.08452,-6.99659 -0.52402,-1.2704 -0.53118,-1.27864 -1.11192,-1.27864 -0.79127,0 -1.58711,-0.56193 -2.02522,-1.42998 -0.70215,-1.39119 -0.19972,-3.09131 1.11461,-3.77161 0.55011,-0.28474 1.15699,-0.39978 6.17197,-1.16995 7.9937,-1.22761 17.52921,-2.20308 25.03067,-2.56061 1.86943,-0.0891 3.99025,-0.20267 4.71294,-0.25239 l 1.31397,-0.0904 v -1.56993 -1.56992 l 6.37079,0.009 6.37079,0.009 v 1.56055 1.56055 l 1.31397,0.0911 c 0.72269,0.0501 2.38905,0.1325 3.70302,0.18307 10.30314,0.39658 31.67381,2.90117 33.29108,3.90164 0.26744,0.16544 0.65273,0.59731 0.85623,0.95972 0.30484,0.54291 0.35891,0.83322 0.30703,1.64871 -0.10602,1.6666 -0.94653,2.47991 -2.62414,2.53922 l -0.88204,0.0312 -0.3719,0.91575 c -0.61684,1.5189 -1.83413,3.41508 -3.01838,4.70179 -2.17191,2.3598 -4.63316,3.51106 -7.1582,3.34829 -1.0168,-0.0656 -1.73915,-0.24981 -3.43746,-0.87686 -4.75446,-1.75543 -9.33662,-3.06223 -13.78293,-3.93081 -2.95784,-0.57781 -7.84247,-1.24954 -8.06868,-1.1096 -0.0702,0.0434 -0.1276,3.1157 -0.1276,6.8273 v 6.74836 l 6.33097,0.0801 c 6.59433,0.0834 7.85555,0.19134 10.78459,0.92304 9.87374,2.46651 17.88579,9.91308 21.04916,19.56352 1.02921,3.13976 1.39831,5.46862 1.64763,10.39585 0.26294,5.19629 1.25289,23.87553 1.52924,28.85491 0.25734,4.63691 0.22068,6.26152 -0.19243,8.52894 -0.53235,2.92182 -1.93162,6.29055 -3.64201,8.76807 -1.13269,1.64072 -4.19713,4.62829 -5.87719,5.72975 -2.70427,1.77294 -5.57545,2.91375 -8.67114,3.44531 -1.74684,0.29996 -2.74541,0.30984 -29.70379,0.29405 -22.3481,-0.0131 -28.14588,-0.0583 -29.1517,-0.22739 z m 56.94321,-0.87814 c 9.60176,-0.96262 17.03412,-7.62896 19.01007,-17.05078 0.38324,-1.82736 0.45977,-4.20716 0.25638,-7.97213 -0.10184,-1.88513 -0.32575,-6.08185 -0.49757,-9.32603 -0.17183,-3.24419 -0.35206,-6.61591 -0.40051,-7.49272 -0.0485,-0.8768 -0.26328,-4.90244 -0.4774,-8.94586 -0.4783,-9.03205 -0.66702,-10.47559 -1.82468,-13.95701 -3.06438,-9.21553 -11.10152,-16.55907 -20.54879,-18.77547 -3.36214,-0.78878 -3.88299,-0.80692 -23.16728,-0.80692 -19.30499,0 -20.05436,0.0263 -23.25982,0.81486 -10.83517,2.66569 -19.15642,11.33834 -21.40665,22.31062 -0.37495,1.82829 -0.5615,4.13733 -0.97161,12.02649 -0.41411,7.96608 -1.06525,20.21377 -1.29249,24.31146 -0.2713,4.89201 -0.0573,7.28611 0.91917,10.28255 1.73044,5.3102 5.60199,9.84609 10.52877,12.33546 2.66795,1.34804 4.50149,1.86114 8.24107,2.3062 1.25416,0.14926 53.37193,0.0916 54.89134,-0.0607 z m -22.0818,-92.29789 v -6.93475 l -2.54831,-0.087 c -2.57657,-0.088 -8.4135,0.0815 -8.68962,0.25228 -0.17162,0.10617 -0.21244,13.50875 -0.0417,13.67968 0.0595,0.0596 2.62175,0.0894 5.69389,0.0664 l 5.5857,-0.0419 z M 123.791,135.55663 c 9.4404,-3.50893 18.31936,-5.28771 27.40631,-5.49045 10.12697,-0.22595 18.61084,1.34041 30.8754,5.70047 1.28723,0.45761 1.55976,0.49964 2.86686,0.44213 1.29207,-0.0569 1.57755,-0.12945 2.70679,-0.6883 1.44156,-0.71342 3.11273,-2.25293 4.1544,-3.82711 0.82496,-1.24668 2.00634,-3.63634 1.86264,-3.76768 -0.0618,-0.0564 -1.18736,-0.35855 -2.50133,-0.67135 -14.5061,-3.45324 -27.5337,-4.92683 -41.25085,-4.66598 -3.06594,0.0583 -5.9328,0.13767 -6.37079,0.17638 -0.43799,0.0387 -1.87142,0.14911 -3.18538,0.24534 -6.74628,0.49407 -15.54267,1.81743 -22.16714,3.3349 -3.41011,0.78115 -6.05433,1.4319 -6.48626,1.59627 l -0.40953,0.15585 0.54328,1.19327 c 1.12569,2.47247 2.60932,4.39408 4.30843,5.58031 2.53122,1.76715 4.30925,1.92664 7.64717,0.68595 z m -11.17743,-8.95399 c 14.72193,-3.8024 29.04165,-5.41519 44.5046,-5.01242 11.88372,0.30953 24.10379,2.03523 36.03088,5.08821 1.35563,0.347 2.58646,0.63091 2.73518,0.63091 0.45508,0 1.23247,-0.77817 1.33756,-1.33891 0.12195,-0.6506 -0.24412,-1.57878 -0.7507,-1.90348 -0.87642,-0.56174 -14.89359,-2.43296 -23.5454,-3.14318 -7.23232,-0.5937 -11.21545,-0.74673 -19.98835,-0.76793 -13.94157,-0.0337 -25.02261,0.79268 -38.38398,2.86253 -4.09886,0.63496 -5.09743,0.83059 -5.4244,1.06268 -0.66282,0.47048 -0.90211,1.66079 -0.48522,2.41364 0.19561,0.35325 0.79905,0.79586 1.10297,0.809 0.0719,0.003 1.36198,-0.31237 2.86686,-0.70105 z m 45.1815,-8.61934 v -1.03623 h -5.41517 -5.41517 v 1.03623 1.03623 h 5.41517 5.41517 z M 122.95636,77.966252 c -2.83966,-0.44433 -5.63177,-1.45309 -8.04698,-2.9073 -5.58376,-3.36203 -9.38423,-8.88782 -10.58306,-15.38751 -0.37156,-2.01444 -0.3371,-4.80357 0.17375,-14.06454 0.36609,-6.636604 1.01324,-18.718554 1.29794,-24.231749 0.0498,-0.964487 0.16,-2.379446 0.24487,-3.144352 0.93885,-8.4611868 5.49115,-16.1651018 12.46013,-21.0864328 2.98462,-2.107664 6.54228,-3.735621 9.91667,-4.537792 3.27041,-0.77745 4.02055,-0.842486 10.62139,-0.920864 l 6.33096,-0.07517 v -6.7588752 -6.758875 l -0.35835,0.0024 c -0.1971,0.0013 -1.5051,0.176698 -2.90668,0.389748 -5.47369,0.832048 -10.70137,2.15124 -16.19146,4.085885 -3.71489,1.309081 -4.15057,1.4205 -5.55464,1.4205 -2.3928,0 -4.18768,-0.841239 -6.28535,-2.945856 -1.5089,-1.513902 -2.54461,-3.07568 -3.3589,-5.064969 -0.39367,-0.961733 -0.48714,-1.076081 -0.87965,-1.076081 -2.6664,0 -3.43451,-3.852701 -1.03653,-5.199073 0.33466,-0.187901 0.90591,-0.384565 1.26945,-0.437032 0.36353,-0.05247 2.48859,-0.379322 4.72234,-0.726344 5.02227,-0.780226 12.36105,-1.651485 17.51967,-2.079932 3.48447,-0.289401 11.83022,-0.797324 13.17956,-0.802108 l 0.51762,-0.0018 v -1.594194 -1.594194 h 6.37079 6.37079 v 1.594194 1.594194 l 0.51762,0.0019 c 3.63433,0.01328 15.74863,0.929765 22.25794,1.683879 8.8304,1.023016 14.71827,1.957729 15.54206,2.46734 1.49698,0.926051 1.60204,3.633956 0.18031,4.64727 -0.32238,0.229767 -0.82583,0.375043 -1.50839,0.435264 l -1.02451,0.09039 -0.37846,0.899994 c -1.29629,3.082666 -3.6077,5.82139 -5.95514,7.056096 -2.48257,1.30578 -4.30636,1.356415 -7.42677,0.206192 -5.26197,-1.939625 -9.38686,-3.12463 -13.92264,-3.999722 -2.46271,-0.475133 -7.36462,-1.210584 -8.08294,-1.212711 -0.15618,-4.63e-4 -0.19908,1.473121 -0.19908,6.838139 v 6.8387292 l 6.4106,0.07709 c 6.63685,0.07981 7.60417,0.160189 10.63125,0.883391 8.38991,2.004436 15.82476,8.02442596 19.6035,15.872936 2.31471,4.8076728 2.81609,7.3922108 3.32808,17.1555228 0.4822,9.195184 1.13248,21.344177 1.30129,24.311458 0.27798,4.886224 0.25406,7.995344 -0.0754,9.804284 -0.79309,4.35407 -2.76541,8.28444 -5.7325,11.4235 -3.52035,3.72439 -7.55555,5.88513 -12.60379,6.74898 -1.82758,0.31273 -2.5156,0.31975 -29.60797,0.3019 -21.76895,-0.0143 -28.0193,-0.0625 -29.04936,-0.22364 z m 59.32614,-1.24426 c 3.94896,-0.95967 6.84782,-2.42724 9.75555,-4.93884 3.29285,-2.84425 5.72107,-7.02714 6.72775,-11.58938 0.40138,-1.81902 0.45344,-5.50607 0.15082,-10.681095 -0.10511,-1.797454 -0.51314,-9.36589 -0.90673,-16.818746 -0.70405,-13.331561 -0.82963,-15.008204 -1.28841,-17.2031 -2.23193,-10.6780868 -10.71752,-19.3614128 -21.41287,-21.9118488 -3.11871,-0.743694 -2.99989,-0.7399 -23.16762,-0.7399 -20.18426,0 -19.97028,-0.0069 -23.17372,0.7421 -9.52286,2.226405 -17.54054,9.600914 -20.52272,18.8763968 -1.31255,4.082415 -1.31896,4.142859 -2.17405,20.475481 -0.30526,5.830764 -0.70585,13.327461 -0.89019,16.659326 -0.35917,6.491956 -0.33141,8.111416 0.18236,10.638636 1.39999,6.88648 6.44921,12.8915 12.95061,15.40213 1.53295,0.59198 2.85956,0.95832 4.64064,1.28149 0.46066,0.0836 12.84778,0.13257 29.38525,0.1162 26.68737,-0.0264 28.66569,-0.047 29.74333,-0.30885 z m -24.52556,-91.973444 -0.0415,-6.894889 -3.98174,-0.04944 c -2.18996,-0.02719 -4.71637,-0.0024 -5.61426,0.0552 l -1.63251,0.104634 v 6.839693 6.8396932 h 5.65577 5.65576 z m -35.08968,-2.196527 c 0.44286,-0.156667 1.84444,-0.654538 3.11461,-1.10638 6.397,-2.275616 13.86116,-3.929887 20.54578,-4.553533 2.86569,-0.267356 9.72228,-0.308231 12.12744,-0.0723 8.39913,0.823912 15.88382,2.597449 23.6286,5.598922 0.76964,0.29827 1.26724,0.370988 2.55673,0.373638 1.53861,0.0032 1.64937,-0.02058 2.83714,-0.608237 1.42695,-0.705987 2.53871,-1.636755 3.72899,-3.121913 0.80978,-1.010387 2.42487,-3.904942 2.42356,-4.343466 -9.7e-4,-0.320939 -6.08999,-1.735273 -12.58167,-2.922421 -20.32822,-3.717468 -40.85665,-3.443754 -61.07991,0.814403 -4.26742,0.898536 -8.52093,2.003584 -8.52093,2.213707 0,0.115782 0.36249,0.935285 0.80554,1.821117 2.51509,5.028699 6.50255,7.290223 10.41412,5.906461 z m 74.10906,-9.186807 c 0.50276,-0.549417 0.50203,-1.783089 -0.001,-2.368892 -0.42472,-0.494222 -0.93366,-0.605936 -6.47602,-1.42149 -13.30509,-1.957831 -24.65136,-2.793844 -37.91901,-2.793937 -10.93416,-7.6e-5 -18.63649,0.446221 -28.90744,1.674988 -4.38623,0.524748 -12.16717,1.662671 -13.53792,1.979852 -1.39527,0.322855 -1.97287,1.824789 -1.10073,2.86224 0.29714,0.353469 0.55026,0.49049 0.90607,0.49049 0.27156,0 2.07489,-0.388784 4.0074,-0.863964 9.7209,-2.390244 16.56196,-3.520982 26.52813,-4.384752 6.83315,-0.592231 18.11147,-0.560897 25.32387,0.07036 9.42603,0.824997 19.19642,2.489992 27.95183,4.763337 1.13878,0.295684 2.24969,0.50291 2.46868,0.460503 0.219,-0.04241 0.55944,-0.253337 0.75653,-0.468731 z m -39.01347,-8.70351 -0.0474,-0.996371 h -5.33269 -5.33269 l -0.0558,0.767493 c -0.0959,1.319696 -0.51738,1.22525 5.46786,1.22525 h 5.34813 z"
       id="path17"
       clip-path="url(#clipPath18)"
       transform="translate(-103.61096,-115.1727)" />
  </g>
</svg>
